<?xml version="1.0" encoding="UTF-8" standalone="no"?>
<!DOCTYPE svg PUBLIC "-//W3C//DTD SVG 1.1//EN" "http://www.w3.org/Graphics/SVG/1.1/DTD/svg11.dtd">
<svg width="100%" height="100%" viewBox="0 0 56 56" version="1.1" xmlns="http://www.w3.org/2000/svg" xmlns:xlink="http://www.w3.org/1999/xlink" xml:space="preserve" xmlns:serif="http://www.serif.com/" style="fill-rule:evenodd;clip-rule:evenodd;stroke-linejoin:round;stroke-miterlimit:2;">
    <g id="button_square" transform="matrix(1,0,0,1,-4,-4)">
        <path d="M32,4C16.64,4 4,16.64 4,32C4,47.36 16.64,60 32,60C47.36,60 60,47.36 60,32C60,16.64 47.36,4 32,4ZM18,16L46,16C47.097,16 48,16.903 48,18L48,46C48,47.097 47.097,48 46,48L18,48C16.903,48 16,47.097 16,46L16,18C16,16.903 16.903,16 18,16ZM20,20L20,44L44,44L44,20L20,20Z" style="fill:white;fill-rule:nonzero;"/>
    </g>
</svg>
