<?xml version="1.0" encoding="UTF-8" standalone="no"?>
<!DOCTYPE svg PUBLIC "-//W3C//DTD SVG 1.1//EN" "http://www.w3.org/Graphics/SVG/1.1/DTD/svg11.dtd">
<svg width="100%" height="100%" viewBox="0 0 56 56" version="1.1" xmlns="http://www.w3.org/2000/svg" xmlns:xlink="http://www.w3.org/1999/xlink" xml:space="preserve" xmlns:serif="http://www.serif.com/" style="fill-rule:evenodd;clip-rule:evenodd;stroke-linejoin:round;stroke-miterlimit:2;">
    <g id="circle" transform="matrix(1,0,0,1,-4,-4)">
        <path d="M32,4C16.64,4 4,16.64 4,32C4,47.36 16.64,60 32,60C47.36,60 60,47.36 60,32C60,16.64 47.36,4 32,4ZM32,13C42.47,13 51,21.53 51,32C51,42.47 42.47,51 32,51C21.53,51 13,42.47 13,32C13,21.53 21.53,13 32,13ZM32,17C23.692,17 17,23.692 17,32C17,40.308 23.692,47 32,47C40.308,47 47,40.308 47,32C47,23.692 40.308,17 32,17Z" style="fill:white;fill-rule:nonzero;"/>
    </g>
</svg>
