<?xml version="1.0" encoding="UTF-8" standalone="no"?>
<!DOCTYPE svg PUBLIC "-//W3C//DTD SVG 1.1//EN" "http://www.w3.org/Graphics/SVG/1.1/DTD/svg11.dtd">
<svg width="100%" height="100%" viewBox="0 0 58 58" version="1.1" xmlns="http://www.w3.org/2000/svg" xmlns:xlink="http://www.w3.org/1999/xlink" xml:space="preserve" xmlns:serif="http://www.serif.com/" style="fill-rule:evenodd;clip-rule:evenodd;stroke-linejoin:round;stroke-miterlimit:2;">
    <g id="path844-7" transform="matrix(1,0,0,1,-3,-3)">
        <path d="M32,3C16.091,3 3,16.091 3,32C3,47.909 16.091,61 32,61C47.909,61 61,47.909 61,32C61,16.091 47.909,3 32,3ZM28.723,11.996L35.277,11.996L35.277,28.723L52.004,28.723L52.004,35.277L35.277,35.277L35.277,52.002L28.723,52.002L28.723,35.277L11.998,35.277L11.998,28.723L28.723,28.723L28.723,11.996Z" style="fill:white;"/>
    </g>
</svg>
